<svg xmlns="http://www.w3.org/2000/svg" xmlns:xlink="http://www.w3.org/1999/xlink" width="1024" zoomAndPan="magnify" viewBox="0 0 768 767.999994" height="1024" preserveAspectRatio="xMidYMid meet" version="1.2"><defs><clipPath id="ece5d8e661"><path d="M 242.183594 91 L 525 91 L 525 677 L 242.183594 677 Z M 242.183594 91 "/></clipPath></defs><g id="fffbf90eef"><rect x="0" width="768" y="0" height="767.999994" style="fill:#ffffff;fill-opacity:1;stroke:none;"/><rect x="0" width="768" y="0" height="767.999994" style="fill:#1d1d1d;fill-opacity:1;stroke:none;"/><g clip-rule="nonzero" clip-path="url(#ece5d8e661)"><path style=" stroke:none;fill-rule:nonzero;fill:#ff9800;fill-opacity:1;" d="M 521.640625 361.703125 C 516.277344 354.785156 511.789062 347.34375 508.167969 339.375 C 508.03125 338.972656 507.816406 338.617188 507.53125 338.308594 C 504.121094 335.296875 502.394531 331.230469 500.691406 327.183594 C 495.542969 315.03125 491.09375 302.578125 486.390625 290.269531 C 482.679688 280.578125 477.617188 271.652344 471.203125 263.492188 C 469.199219 260.949219 467.242188 258.273438 464.484375 256.53125 C 461.953125 254.859375 459.953125 252.699219 458.484375 250.042969 C 455.183594 244.449219 451.789062 238.847656 447.085938 234.359375 C 443.777344 231.207031 441.582031 227.308594 439.242188 223.636719 C 436.078125 218.859375 433.1875 213.925781 430.566406 208.832031 C 429.164062 205.953125 428.609375 203.109375 424.710938 203.070312 C 424.375 203.070312 424.039062 202.617188 423.703125 202.375 C 415.222656 196.378906 406.90625 190.222656 396.9375 186.777344 C 395.992188 186.433594 395.128906 185.941406 394.347656 185.304688 C 392.40625 183.792969 390.222656 182.835938 387.796875 182.4375 C 385.417969 181.996094 383.109375 181.316406 380.871094 180.398438 C 379.335938 179.796875 377.621094 178.835938 376.132812 179.066406 C 371.707031 179.726562 368.417969 177.289062 365.035156 175.359375 C 363.175781 174.289062 360.417969 173.148438 360.238281 170.773438 C 359.90625 165.273438 359.949219 159.773438 360.371094 154.277344 C 365.421875 158.152344 368.058594 157 369.089844 151.085938 C 369.980469 145.988281 368 141.070312 368.347656 136.019531 C 368.417969 135.035156 367.699219 133.785156 366.476562 134.339844 C 364.078125 135.417969 364.605469 133.976562 364.832031 132.671875 C 365.078125 131.890625 365.214844 131.089844 365.242188 130.269531 C 364.484375 124.40625 367.507812 118.824219 366.261719 112.839844 C 365.539062 109.101562 363.9375 105.785156 361.460938 102.894531 C 360.835938 102.171875 359.972656 101.691406 359.601562 100.699219 C 357.800781 95.984375 352.871094 95.683594 349.273438 93.5 C 348.949219 93.375 348.625 93.375 348.300781 93.5 C 347.101562 93.882812 345.972656 93.199219 344.90625 93.066406 C 342.578125 92.804688 340.429688 91.160156 338.007812 92 C 336.722656 92.40625 335.4375 92.40625 334.15625 92 C 330.554688 91.074219 327.953125 91.914062 326.859375 94.507812 C 326.070312 96.402344 324.882812 96.847656 322.996094 96.75 C 322.277344 96.652344 321.5625 96.679688 320.851562 96.828125 C 320.140625 96.976562 319.476562 97.242188 318.855469 97.625 C 318.238281 98.003906 317.699219 98.476562 317.246094 99.046875 C 316.789062 99.613281 316.445312 100.238281 316.207031 100.925781 C 315.984375 101.726562 315.582031 102.425781 315.007812 103.023438 C 312.1875 105.195312 311.226562 108.242188 311.023438 111.53125 C 310.761719 115.851562 309.824219 120.109375 310.640625 124.546875 C 311.214844 127.632812 310.640625 130.917969 310.21875 134.242188 C 309.9375 134.117188 309.664062 133.96875 309.402344 133.796875 C 308.707031 133.199219 308.589844 131.652344 307.316406 132.070312 C 306.285156 132.417969 306.261719 133.714844 306.117188 134.664062 C 305.398438 139.855469 305.09375 145.074219 305.207031 150.320312 C 305.300781 153.523438 307.605469 155.023438 310.53125 153.691406 C 312.738281 152.707031 312.703125 153.847656 312.691406 155.285156 C 312.667969 158.871094 313.179688 162.378906 314.226562 165.808594 C 314.546875 167.019531 314.730469 168.25 314.777344 169.503906 C 315.128906 174.648438 315.605469 173.652344 311.179688 175.296875 C 305.972656 177.21875 301.582031 179.988281 300.476562 186.011719 C 300.273438 187.101562 299.351562 187.367188 298.558594 187.785156 C 293.015625 190.640625 287.304688 193.148438 281.761719 195.910156 C 268.972656 202.21875 258.96875 211.15625 256.148438 225.988281 C 254.214844 236.339844 256.410156 246.609375 258.632812 256.582031 C 260.144531 263.382812 260.441406 270.125 260.910156 276.976562 C 260.957031 278.0625 260.804688 279.125 260.453125 280.15625 C 259.539062 283.125 259.160156 286.160156 259.316406 289.261719 C 259.546875 292.011719 259.355469 294.730469 258.738281 297.417969 C 258.125 300.105469 257.117188 302.636719 255.714844 305.015625 C 254.785156 306.796875 254.15625 308.679688 253.832031 310.664062 C 252.210938 317.742188 251.828125 324.964844 251.359375 332.175781 C 250.761719 341.546875 250.375 350.929688 247.484375 359.988281 C 246.203125 363.992188 244.582031 367.726562 244.484375 372.308594 C 244.355469 378.308594 244.484375 384.558594 242.554688 390.472656 C 242.320312 391.699219 242.242188 392.933594 242.328125 394.179688 C 242.277344 394.78125 242.3125 395.382812 242.4375 395.972656 C 242.5625 396.566406 242.769531 397.128906 243.058594 397.664062 C 243.347656 398.195312 243.707031 398.675781 244.136719 399.105469 C 244.5625 399.53125 245.042969 399.890625 245.578125 400.179688 C 247.976562 401.59375 250.375 402.867188 251.421875 405.757812 C 252.085938 406.964844 253.042969 407.871094 254.289062 408.46875 C 260.839844 412.75 271.492188 408.851562 274.179688 401.269531 C 274.445312 400.660156 274.628906 400.027344 274.734375 399.367188 C 274.835938 398.710938 274.855469 398.050781 274.792969 397.390625 C 274.726562 396.726562 274.582031 396.085938 274.355469 395.460938 C 274.128906 394.835938 273.824219 394.246094 273.449219 393.699219 C 272.800781 392.621094 272.402344 391.457031 272.25 390.207031 C 270.941406 383.296875 269.847656 376.316406 264.882812 370.773438 C 263.359375 369.058594 263.128906 363.308594 264.316406 361.304688 C 267.53125 355.882812 270.890625 350.507812 273.914062 344.988281 C 280.082031 333.761719 284.714844 321.953125 285.589844 308.996094 C 286.34375 298.199219 288.972656 287.664062 290.566406 276.976562 C 292.128906 278.609375 293.566406 284.175781 292.476562 286.140625 C 290.6875 289.464844 291.492188 292.140625 293.675781 294.839844 C 294.140625 295.285156 294.441406 295.824219 294.574219 296.453125 C 294.707031 297.085938 294.652344 297.699219 294.40625 298.296875 C 293.945312 299.179688 293.699219 300.121094 293.667969 301.117188 C 293.636719 302.117188 293.824219 303.070312 294.226562 303.984375 C 294.550781 304.820312 294.644531 305.683594 294.503906 306.570312 C 294.367188 307.457031 294.011719 308.25 293.449219 308.949219 C 292.914062 309.601562 292.582031 310.347656 292.453125 311.179688 C 291.695312 319.964844 291.804688 328.671875 296.050781 336.710938 C 296.871094 338.167969 297.414062 339.722656 297.679688 341.371094 C 297.945312 343.023438 297.917969 344.667969 297.597656 346.308594 C 297.042969 349.191406 296.996094 352.085938 297.464844 354.984375 C 297.699219 356.15625 297.523438 357.265625 296.9375 358.308594 C 295.9375 360.203125 295.335938 362.21875 295.125 364.355469 C 294.917969 366.492188 295.121094 368.585938 295.738281 370.640625 C 296.257812 372.25 296.226562 373.847656 295.65625 375.4375 C 294 379.421875 296.398438 383.285156 295.882812 387.222656 C 295.867188 387.492188 295.964844 387.714844 296.171875 387.894531 C 297.839844 389.09375 297.515625 390.773438 297.453125 392.414062 C 297.488281 393.828125 297.722656 395.203125 298.164062 396.542969 C 298.894531 399.242188 298.90625 402.15625 301.246094 404.234375 C 301.582031 404.53125 301.511719 405.335938 301.535156 405.914062 C 301.988281 416.316406 304.976562 426.308594 306.523438 436.53125 C 306.980469 439.554688 307.878906 442.527344 308.242188 445.578125 C 309.125 452.347656 310.683594 458.964844 312.90625 465.421875 C 314.609375 470.601562 316.84375 475.652344 320.992188 479.253906 C 323.835938 481.710938 324.59375 484.230469 324.425781 487.808594 C 324.054688 495.859375 324.269531 495.882812 332.320312 497.308594 C 334.035156 497.621094 335.917969 497.835938 336.625 499.78125 C 337.335938 501.726562 338.484375 501.375 339.804688 500.886719 C 343.40625 499.589844 343.40625 499.566406 345.265625 502.960938 C 346.09375 504.308594 346.785156 505.722656 347.339844 507.207031 C 349.054688 512.59375 351.3125 517.777344 353.121094 523.105469 C 353.792969 525.082031 353.027344 527.566406 354.035156 529.691406 C 354.035156 529.8125 353.960938 530.015625 353.925781 530.171875 C 353.699219 530.988281 353.683594 531.8125 353.871094 532.640625 C 354.058594 533.464844 354.433594 534.199219 354.996094 534.835938 C 356.191406 536.398438 356.78125 538.160156 356.769531 540.128906 C 357.261719 547.808594 358.75 555.257812 362.515625 562.121094 C 366.578125 569.765625 371.285156 576.992188 376.636719 583.800781 C 380.140625 588.15625 383.441406 592.59375 385.359375 597.945312 C 386.050781 600.058594 387.25 601.832031 388.960938 603.257812 C 392.355469 605.957031 393.972656 610.144531 397.296875 612.855469 C 399.601562 614.742188 400.308594 617.65625 402.601562 619.839844 C 405.691406 622.785156 408.289062 626.117188 410.390625 629.832031 C 412.492188 633.550781 414.007812 637.496094 414.933594 641.664062 C 415.152344 642.390625 415.152344 643.117188 414.933594 643.847656 C 414.441406 645.261719 414.503906 646.535156 416.347656 646.882812 C 417.355469 647.0625 417.261719 647.722656 416.996094 648.371094 C 415.726562 651.511719 415.234375 654.945312 413.398438 657.894531 C 412.5 659.488281 411.703125 661.128906 411 662.816406 C 410.601562 663.691406 410.652344 664.21875 411.203125 664.445312 C 411.023438 665.082031 410.734375 665.945312 410.277344 667.109375 C 408.132812 672.652344 415.078125 676.277344 429.871094 676.613281 C 444.675781 673.214844 448.070312 669.570312 448.550781 664.613281 C 448.410156 663.953125 448.347656 663.285156 448.359375 662.609375 C 449.3125 661.917969 449.898438 660.988281 450.109375 659.828125 C 450.582031 658.546875 450.695312 657.234375 450.457031 655.890625 C 448.492188 649.894531 446.859375 643.714844 443.765625 638.101562 C 443.046875 637.097656 442.4375 636.035156 441.941406 634.910156 C 441.320312 632.910156 440.421875 631.042969 439.25 629.3125 C 438.078125 627.578125 436.679688 626.054688 435.054688 624.734375 C 428.945312 619.5625 425.636719 612.855469 424.257812 605.09375 C 424.183594 604.699219 424.148438 604.148438 423.882812 603.894531 C 421.234375 601.820312 421.617188 598.519531 420.546875 595.820312 C 419.074219 592.113281 419.21875 587.925781 417.332031 584.363281 C 415.296875 580.605469 414.011719 576.605469 413.480469 572.367188 C 412.917969 567.941406 411.890625 563.632812 410.390625 559.429688 C 408.894531 555.230469 406.964844 551.242188 404.605469 547.457031 C 401.773438 542.660156 398.605469 538.089844 395.4375 533.503906 C 393.109375 530.097656 390.710938 526.65625 391.550781 522.132812 C 391.695312 521.402344 391.25 520.691406 391.105469 519.972656 C 390.554688 517.40625 388.707031 515.316406 388.636719 512.582031 C 388.582031 508.882812 387.855469 505.316406 386.453125 501.890625 C 384.851562 497.597656 383.734375 493.175781 383.105469 488.636719 C 382.78125 486.738281 381.988281 484.796875 383.753906 483.070312 C 384.21875 482.613281 384.003906 481.785156 383.835938 481.136719 C 382.433594 475.058594 381.585938 468.902344 381.292969 462.671875 C 380.945312 457.765625 380.25 452.882812 379.710938 447.988281 C 380.179688 448.269531 380.507812 448.671875 380.691406 449.1875 C 382.457031 452.847656 383.847656 456.769531 386.09375 460.117188 C 390.53125 466.753906 391.3125 474.515625 393.554688 481.867188 C 394.058594 483.511719 394.25 484.964844 395.894531 485.949219 C 396.734375 486.453125 397.992188 487.472656 396.207031 488.5625 C 395.515625 488.996094 394.890625 489.503906 394.324219 490.089844 C 393.761719 490.675781 393.277344 491.324219 392.867188 492.027344 C 392.460938 492.730469 392.144531 493.476562 391.921875 494.257812 C 391.695312 495.039062 391.570312 495.835938 391.539062 496.648438 C 391.199219 500.449219 391.757812 504.113281 393.207031 507.640625 C 395.355469 513.230469 397.429688 518.808594 398.210938 524.808594 C 398.453125 526.550781 398.992188 528.199219 399.832031 529.746094 C 400.667969 531.296875 401.753906 532.648438 403.082031 533.804688 C 404.976562 535.378906 406.453125 537.277344 407.507812 539.503906 C 408.679688 541.902344 409.558594 544.402344 410.148438 547.003906 C 411.816406 555.269531 416.3125 561.976562 421.496094 568.324219 C 422.773438 570.035156 424.269531 571.53125 425.988281 572.804688 C 427.703125 574.078125 429.566406 575.078125 431.574219 575.808594 C 432.039062 575.996094 432.515625 576.148438 433.003906 576.257812 C 433.496094 576.367188 433.992188 576.433594 434.492188 576.460938 C 434.992188 576.488281 435.492188 576.476562 435.988281 576.421875 C 436.488281 576.363281 436.980469 576.269531 437.460938 576.132812 C 437.945312 575.992188 438.414062 575.816406 438.867188 575.601562 C 439.320312 575.386719 439.75 575.136719 440.164062 574.851562 C 440.574219 574.5625 440.960938 574.246094 441.316406 573.894531 C 441.675781 573.542969 442.003906 573.167969 442.300781 572.761719 C 443.589844 571.164062 444.59375 569.402344 445.304688 567.476562 C 446.019531 565.550781 446.410156 563.5625 446.476562 561.507812 C 446.792969 556.796875 446.515625 552.125 445.636719 547.488281 C 444.757812 542.847656 443.308594 538.398438 441.292969 534.128906 C 440.679688 532.785156 440.65625 531.980469 441.890625 531.011719 C 443.734375 529.40625 445.179688 527.503906 446.234375 525.300781 C 449.605469 519.21875 450.710938 512.472656 451.839844 505.769531 C 452.050781 504.390625 451.984375 503.027344 451.640625 501.679688 C 451.296875 500.328125 450.703125 499.101562 449.859375 497.992188 C 449.523438 497.527344 448.863281 497.046875 449.101562 496.492188 C 450.699219 492.785156 448.671875 488.515625 450.972656 484.929688 C 451.152344 484.527344 451.152344 484.128906 450.972656 483.726562 C 448.804688 478.808594 449.367188 473.625 449.546875 468.492188 C 449.796875 461.292969 447.664062 454.515625 445.730469 447.773438 C 444.855469 444.710938 443.847656 441.773438 443.980469 438.605469 C 444.089844 437.425781 443.941406 436.28125 443.539062 435.167969 C 443.136719 434.054688 442.515625 433.082031 441.675781 432.246094 C 441.265625 431.882812 440.96875 431.441406 440.789062 430.921875 C 440.609375 430.402344 440.570312 429.871094 440.667969 429.332031 C 441.183594 426.128906 439.960938 423.464844 438.066406 421.03125 C 437.378906 420.289062 436.839844 419.453125 436.453125 418.519531 C 436.066406 417.585938 435.855469 416.617188 435.820312 415.605469 C 435.941406 412.535156 435.507812 409.800781 432.523438 408.121094 C 432.238281 407.925781 432.0625 407.65625 431.996094 407.316406 C 431.371094 403.898438 429.714844 400.695312 429.59375 397.179688 C 429.554688 396.722656 429.597656 396.277344 429.730469 395.839844 C 429.859375 395.398438 430.066406 395 430.347656 394.640625 C 430.628906 394.28125 430.964844 393.984375 431.359375 393.753906 C 431.753906 393.523438 432.179688 393.375 432.628906 393.304688 C 434.707031 393.085938 434.824219 392.03125 434.371094 390.652344 C 432.90625 385.71875 432.503906 380.699219 433.171875 375.59375 C 434.371094 363.597656 429.628906 353.4375 423.644531 343.753906 C 422.746094 342.421875 422.0625 340.988281 421.59375 339.449219 C 421.125 337.910156 420.890625 336.339844 420.898438 334.730469 C 420.898438 332.082031 421.113281 329.429688 421.207031 326.765625 C 421.472656 319.890625 422.347656 313.015625 421.484375 306.117188 C 420.285156 296.519531 418.832031 286.980469 415.042969 278.042969 C 413.3125 274.148438 412.3125 270.074219 412.042969 265.820312 C 411.890625 263.578125 411.59375 261.359375 411.15625 259.160156 C 410.53125 255.679688 409.773438 252.226562 408.933594 248.027344 C 410.960938 250.234375 413.363281 248.914062 415.113281 250.113281 C 419.46875 253.113281 424.710938 254.722656 428.453125 258.679688 C 429.210938 259.347656 430.070312 259.847656 431.023438 260.179688 C 436.671875 262.578125 440.621094 267.175781 445.417969 270.796875 C 446.070312 271.375 446.46875 272.089844 446.621094 272.945312 C 449.582031 284.175781 455.367188 293.867188 462.742188 302.710938 C 467.742188 308.710938 472.664062 314.777344 477.511719 320.910156 C 481.914062 326.433594 485.140625 332.578125 487.183594 339.339844 C 487.636719 340.851562 488.382812 342.519531 488.117188 343.933594 C 487.109375 348.839844 488.980469 353.53125 488.707031 358.449219 C 488.011719 370.53125 493.816406 381.066406 498.507812 391.769531 C 499.058594 393.039062 499.898438 394.429688 501.554688 394.371094 C 501.957031 394.351562 502.34375 394.265625 502.71875 394.121094 C 503.09375 393.972656 503.4375 393.773438 503.746094 393.515625 C 504.054688 393.261719 504.316406 392.964844 504.53125 392.625 C 504.746094 392.28125 504.902344 391.917969 505 391.527344 C 505.070312 391.277344 505.179688 391.042969 505.332031 390.824219 C 505.480469 390.609375 505.660156 390.421875 505.871094 390.265625 C 506.078125 390.109375 506.308594 389.988281 506.558594 389.90625 C 506.808594 389.824219 507.0625 389.785156 507.328125 389.789062 C 508.695312 389.609375 510.363281 389.644531 511.046875 388.179688 C 511.199219 387.8125 511.402344 387.480469 511.660156 387.175781 C 511.914062 386.871094 512.207031 386.613281 512.542969 386.398438 C 512.878906 386.183594 513.234375 386.023438 513.617188 385.917969 C 514.003906 385.8125 514.390625 385.765625 514.789062 385.78125 C 518.941406 385.78125 520.65625 382.300781 522.597656 379.78125 C 525.597656 375.917969 524.6875 365.683594 521.640625 361.703125 Z M 521.640625 361.703125 "/></g><path style=" stroke:none;fill-rule:nonzero;fill:#ff9800;fill-opacity:1;" d="M 311.503906 597.03125 C 310.253906 597.03125 309.003906 597.09375 307.757812 597.214844 C 306.511719 597.335938 305.277344 597.519531 304.046875 597.761719 C 302.820312 598.003906 301.609375 598.308594 300.410156 598.671875 C 299.210938 599.035156 298.035156 599.453125 296.878906 599.933594 C 295.722656 600.410156 294.59375 600.945312 293.488281 601.53125 C 292.382812 602.121094 291.3125 602.765625 290.269531 603.457031 C 289.230469 604.152344 288.226562 604.898438 287.257812 605.691406 C 286.289062 606.484375 285.363281 607.324219 284.476562 608.207031 C 283.589844 609.09375 282.75 610.015625 281.957031 610.984375 C 281.164062 611.953125 280.417969 612.953125 279.722656 613.996094 C 279.023438 615.035156 278.382812 616.105469 277.792969 617.210938 C 277.199219 618.3125 276.664062 619.441406 276.1875 620.597656 C 275.707031 621.753906 275.285156 622.933594 274.921875 624.128906 C 274.554688 625.328125 274.25 626.539062 274.007812 627.765625 C 273.761719 628.992188 273.578125 630.230469 273.453125 631.476562 C 273.332031 632.71875 273.269531 633.96875 273.269531 635.21875 C 273.265625 636.472656 273.328125 637.71875 273.449219 638.964844 C 273.570312 640.210938 273.753906 641.449219 273.996094 642.675781 C 274.242188 643.902344 274.542969 645.117188 274.90625 646.3125 C 275.269531 647.511719 275.6875 648.6875 276.167969 649.84375 C 276.644531 651 277.179688 652.132812 277.769531 653.234375 C 278.359375 654.339844 279 655.414062 279.695312 656.453125 C 280.390625 657.496094 281.132812 658.5 281.925781 659.46875 C 282.71875 660.433594 283.558594 661.363281 284.441406 662.246094 C 285.328125 663.132812 286.253906 663.972656 287.21875 664.765625 C 288.1875 665.5625 289.191406 666.308594 290.230469 667.003906 C 291.269531 667.699219 292.34375 668.34375 293.445312 668.933594 C 294.550781 669.523438 295.679688 670.058594 296.835938 670.539062 C 297.992188 671.019531 299.167969 671.441406 300.363281 671.804688 C 301.5625 672.167969 302.773438 672.472656 304 672.71875 C 305.230469 672.960938 306.464844 673.148438 307.710938 673.269531 C 308.957031 673.394531 310.203125 673.457031 311.457031 673.457031 C 312.707031 673.457031 313.957031 673.398438 315.203125 673.273438 C 316.445312 673.152344 317.683594 672.96875 318.910156 672.726562 C 320.136719 672.484375 321.351562 672.179688 322.550781 671.816406 C 323.746094 671.457031 324.925781 671.035156 326.082031 670.558594 C 327.238281 670.078125 328.367188 669.542969 329.472656 668.957031 C 330.574219 668.367188 331.648438 667.722656 332.6875 667.03125 C 333.730469 666.335938 334.734375 665.589844 335.703125 664.796875 C 336.671875 664.003906 337.597656 663.164062 338.484375 662.28125 C 339.367188 661.398438 340.207031 660.472656 341.003906 659.503906 C 341.796875 658.539062 342.542969 657.535156 343.238281 656.492188 C 343.933594 655.453125 344.578125 654.382812 345.167969 653.277344 C 345.757812 652.175781 346.292969 651.046875 346.773438 649.890625 C 347.253906 648.734375 347.675781 647.558594 348.039062 646.359375 C 348.402344 645.164062 348.707031 643.949219 348.953125 642.722656 C 349.199219 641.496094 349.382812 640.257812 349.503906 639.015625 C 349.628906 637.769531 349.691406 636.519531 349.691406 635.269531 C 349.695312 634.015625 349.636719 632.765625 349.515625 631.519531 C 349.394531 630.273438 349.210938 629.039062 348.96875 627.808594 C 348.726562 626.582031 348.425781 625.367188 348.0625 624.167969 C 347.703125 622.972656 347.28125 621.792969 346.804688 620.636719 C 346.328125 619.480469 345.792969 618.347656 345.207031 617.242188 C 344.617188 616.136719 343.972656 615.066406 343.28125 614.023438 C 342.585938 612.980469 341.839844 611.976562 341.046875 611.007812 C 340.253906 610.039062 339.414062 609.113281 338.53125 608.226562 C 337.644531 607.339844 336.71875 606.5 335.753906 605.707031 C 334.785156 604.910156 333.78125 604.167969 332.742188 603.472656 C 331.699219 602.773438 330.628906 602.132812 329.523438 601.542969 C 328.417969 600.953125 327.289062 600.417969 326.132812 599.9375 C 324.976562 599.457031 323.796875 599.039062 322.601562 598.675781 C 321.402344 598.3125 320.1875 598.007812 318.960938 597.761719 C 317.734375 597.519531 316.496094 597.335938 315.25 597.214844 C 314.003906 597.09375 312.753906 597.03125 311.503906 597.03125 Z M 311.503906 597.03125 "/></g></svg>